<?xml version="1.0" encoding="UTF-8"?>
<!DOCTYPE svg PUBLIC "-//W3C//DTD SVG 1.1//EN" "http://www.w3.org/Graphics/SVG/1.1/DTD/svg11.dtd">
<!-- Creator: CorelDRAW X6 -->
<svg xmlns="http://www.w3.org/2000/svg" xml:space="preserve" width="3136px" height="974px" version="1.1" style="shape-rendering:geometricPrecision; text-rendering:geometricPrecision; image-rendering:optimizeQuality; fill-rule:evenodd; clip-rule:evenodd"
viewBox="0 0 3136 974"
 xmlns:xlink="http://www.w3.org/1999/xlink">
 <defs>
  <style type="text/css">
   <![CDATA[
    .fil0 {fill:#00A859;fill-rule:nonzero}
    .fil1 {fill:#ED3237;fill-rule:nonzero}
   ]]>
  </style>
 </defs>
 <g id="Camada_x0020_1">
  <metadata id="CorelCorpID_0Corel-Layer"/>
  <g id="_573083744">
   <g>
    <path class="fil0" d="M168 744c0,4 -1,7 -4,11 -3,3 -7,6 -13,8 -6,2 -14,3 -23,5 -10,1 -22,2 -37,2 -15,0 -27,-1 -37,-2 -10,-1 -18,-3 -24,-5 -6,-2 -10,-5 -13,-8 -3,-3 -4,-7 -4,-11l0 -712c0,-4 1,-7 4,-11 3,-3 7,-6 13,-8 6,-2 14,-3 23,-5 10,-1 22,-2 37,-2 15,0 28,1 37,2 10,1 17,3 23,5 6,2 10,5 13,8 3,3 4,7 4,11l0 712zm634 -670c0,12 0,21 -1,29 -1,8 -3,14 -5,19 -2,5 -5,8 -7,10 -3,2 -6,4 -9,4l-247 0 0 203 232 0c4,0 7,1 9,3 3,2 5,5 7,10 2,5 4,11 5,19 1,8 2,17 2,29 0,12 -1,21 -2,29 -1,8 -2,14 -5,19 -2,5 -5,9 -7,11 -3,2 -6,3 -9,3l-232 0 0 281c0,4 -1,8 -4,11 -2,3 -6,6 -13,8 -6,2 -14,4 -23,5 -10,1 -22,2 -37,2 -15,0 -27,-1 -37,-2 -10,-1 -18,-3 -24,-5 -6,-2 -10,-5 -13,-8 -3,-3 -4,-7 -4,-11l0 -683c0,-17 4,-29 13,-37 9,-8 19,-11 32,-11l355 0c3,0 7,1 9,3 3,2 5,6 7,11 2,5 4,11 5,19 1,8 1,18 1,30z"/>
    <path class="fil1" d="M1850 744c0,4 -1,7 -3,11 -2,3 -6,6 -12,8 -6,2 -13,3 -22,5 -9,1 -21,2 -36,2 -14,0 -26,-1 -35,-2 -9,-1 -17,-3 -22,-5 -5,-2 -9,-5 -12,-8 -2,-3 -4,-7 -4,-11l0 -613 -1 0 -218 613c-2,5 -4,9 -8,13 -4,3 -8,6 -14,8 -6,2 -14,3 -23,4 -9,1 -21,1 -34,1 -13,0 -24,0 -34,-1 -9,-1 -17,-3 -23,-5 -6,-2 -11,-5 -14,-8 -3,-3 -6,-7 -7,-11l-210 -613 -1 0 0 613c0,4 -1,7 -3,11 -2,3 -6,6 -12,8 -6,2 -14,3 -23,5 -9,1 -21,2 -35,2 -14,0 -26,-1 -35,-2 -9,-1 -17,-3 -22,-5 -6,-2 -10,-5 -12,-8 -2,-3 -3,-7 -3,-11l0 -671c0,-20 5,-35 16,-46 11,-11 24,-16 42,-16l100 0c18,0 33,1 46,4 13,3 24,8 33,15 9,7 17,16 23,27 6,11 12,25 16,41l162 449 2 0 168 -448c5,-16 11,-30 16,-41 6,-11 13,-20 21,-27 8,-7 17,-12 28,-15 11,-3 24,-4 38,-4l103 0c11,0 19,1 27,4 8,3 14,7 19,12 5,5 9,12 11,19 3,8 4,16 4,26l0 671zm712 -670c0,11 0,21 -1,29 -1,8 -2,14 -4,19 -2,5 -4,9 -7,11 -3,2 -6,4 -10,4l-188 0 0 607c0,4 -1,7 -4,11 -3,3 -7,6 -13,8 -6,2 -14,3 -24,5 -10,1 -22,2 -37,2 -15,0 -27,-1 -37,-2 -10,-1 -18,-3 -24,-5 -6,-2 -10,-5 -13,-8 -3,-3 -4,-7 -4,-11l0 -607 -188 0c-4,0 -7,-1 -10,-4 -3,-2 -5,-6 -7,-11 -2,-5 -3,-11 -4,-19 -1,-8 -1,-18 -1,-29 0,-12 0,-21 1,-30 1,-8 3,-15 4,-19 2,-5 4,-8 7,-11 3,-2 6,-3 10,-3l531 0c3,0 7,1 10,3 3,2 5,6 7,11 2,5 3,11 4,19 1,8 1,18 1,30z"/>
   </g>
   <path class="fil1" d="M2271 863c14,0 26,5 36,15 10,10 15,22 15,37 0,14 -5,26 -15,37 -10,10 -22,15 -36,15 -14,0 -26,-5 -36,-15 -10,-10 -15,-22 -15,-37 0,-15 5,-27 15,-37 10,-10 22,-15 36,-15zm224 -533l58 0 0 170 93 0 0 51 -93 0 0 405 -58 0 0 -405 -80 0 0 -51 80 0 0 -170zm197 170l61 0 154 333 152 -333 63 0 -209 456 -11 0 -210 -456z"/>
  </g>
 </g>
</svg>
